STARTFONT 2.1
COMMENT  
COMMENT  WARNING:  This bdf file was generated from an X server using
COMMENT  xbdfdump.  The resulting font is subject to the same copyright,
COMMENT  license, and trademark restrictions as the original font.  The
COMMENT  author and distributors of xbdfdump disclaim all liability for
COMMENT  misuse of the program or its output.
COMMENT  
FONT -phaisarn-angsana-bold-i-normal--12-120-75-75-p-75-tis620-0
SIZE 12 75 75
FONTBOUNDINGBOX 27 35 -8 -11
STARTPROPERTIES 27
FOUNDRY "Phaisarn"
FAMILY_NAME "Angsana"
WEIGHT_NAME "bold"
SLANT "i"
SETWIDTH_NAME "normal"
ADD_STYLE_NAME ""
PIXEL_SIZE 12
POINT_SIZE 120
RESOLUTION_X 75
RESOLUTION_Y 75
SPACING "p"
AVERAGE_WIDTH 75
CHARSET_REGISTRY "tis620"
CHARSET_ENCODING "0"
COPYRIGHT "Angsana by Pt-TITech 1997"
RAW_PIXELSIZE 1000
RAW_POINTSIZE 0
RAW_ASCENT 0
RAW_DESCENT 0
RAW_AVERAGE_WIDTH 2994
FACE_NAME "Angsana BoldInclined"
WEIGHT 10
X_HEIGHT 7
QUAD_WIDTH 10
FONT_ASCENT 20
FONT_DESCENT 10
_XMBDFED_INFO "Edited with xmbdfed 4.5."
ENDPROPERTIES
CHARS 195
STARTCHAR space
ENCODING 32
SWIDTH 320 0
DWIDTH 4 0
BBX 0 0 0 0
BITMAP
ENDCHAR
STARTCHAR exclam
ENCODING 33
SWIDTH 480 0
DWIDTH 6 0
BBX 4 11 1 0
BITMAP
10
10
10
10
20
20
20
00
E0
E0
E0
ENDCHAR
STARTCHAR quotedbl
ENCODING 34
SWIDTH 720 0
DWIDTH 9 0
BBX 6 5 3 6
BITMAP
CC
CC
C8
88
88
ENDCHAR
STARTCHAR numbersign
ENCODING 35
SWIDTH 640 0
DWIDTH 8 0
BBX 7 11 1 0
BITMAP
22
22
24
FE
44
44
44
FE
48
48
88
ENDCHAR
STARTCHAR dollar
ENCODING 36
SWIDTH 640 0
DWIDTH 8 0
BBX 7 12 1 -1
BITMAP
18
2E
6A
68
30
38
1C
1C
AC
A8
70
40
ENDCHAR
STARTCHAR percent
ENCODING 37
SWIDTH 1040 0
DWIDTH 13 0
BBX 10 11 2 0
BITMAP
3040
4880
D900
DA00
D400
9580
6A40
12C0
26C0
4480
8300
ENDCHAR
STARTCHAR ampersand
ENCODING 38
SWIDTH 960 0
DWIDTH 12 0
BBX 11 11 1 0
BITMAP
0700
0D80
0980
0F00
0E00
1DC0
6C80
CF00
C600
E7A0
7BC0
ENDCHAR
STARTCHAR apostrophe
ENCODING 39
SWIDTH 320 0
DWIDTH 4 0
BBX 2 5 3 6
BITMAP
C0
C0
C0
80
80
ENDCHAR
STARTCHAR parenleft
ENCODING 40
SWIDTH 400 0
DWIDTH 5 0
BBX 6 14 1 -3
BITMAP
04
08
10
30
60
60
E0
C0
C0
C0
C0
40
40
20
ENDCHAR
STARTCHAR parenright
ENCODING 41
SWIDTH 400 0
DWIDTH 5 0
BBX 6 14 -2 -3
BITMAP
10
08
08
0C
0C
0C
0C
18
18
18
30
20
40
80
ENDCHAR
STARTCHAR asterisk
ENCODING 42
SWIDTH 640 0
DWIDTH 8 0
BBX 6 6 2 5
BITMAP
30
30
D4
FC
58
48
ENDCHAR
STARTCHAR plus
ENCODING 43
SWIDTH 720 0
DWIDTH 9 0
BBX 8 9 1 1
BITMAP
10
10
10
10
FF
10
10
10
10
ENDCHAR
STARTCHAR comma
ENCODING 44
SWIDTH 320 0
DWIDTH 4 0
BBX 3 5 0 -3
BITMAP
E0
E0
60
40
80
ENDCHAR
STARTCHAR minus
ENCODING 45
SWIDTH 400 0
DWIDTH 5 0
BBX 5 2 0 3
BITMAP
F8
F8
ENDCHAR
STARTCHAR period
ENCODING 46
SWIDTH 320 0
DWIDTH 4 0
BBX 3 3 0 0
BITMAP
E0
E0
E0
ENDCHAR
STARTCHAR slash
ENCODING 47
SWIDTH 320 0
DWIDTH 4 0
BBX 7 11 -1 0
BITMAP
02
04
04
08
08
10
20
20
40
40
80
ENDCHAR
STARTCHAR 0
ENCODING 48
SWIDTH 640 0
DWIDTH 8 0
BBX 7 11 1 0
BITMAP
0C
16
26
66
E6
C6
CC
CC
C8
D8
60
ENDCHAR
STARTCHAR 1
ENCODING 49
SWIDTH 640 0
DWIDTH 8 0
BBX 6 11 1 0
BITMAP
3C
0C
0C
18
18
18
30
30
30
70
F8
ENDCHAR
STARTCHAR 2
ENCODING 50
SWIDTH 640 0
DWIDTH 8 0
BBX 8 11 0 0
BITMAP
1E
23
03
03
02
04
08
10
22
7E
FC
ENDCHAR
STARTCHAR 3
ENCODING 51
SWIDTH 640 0
DWIDTH 8 0
BBX 8 11 0 0
BITMAP
0E
13
03
06
38
0E
06
06
06
CC
F0
ENDCHAR
STARTCHAR 4
ENCODING 52
SWIDTH 640 0
DWIDTH 8 0
BBX 7 11 1 0
BITMAP
02
06
0E
1C
2C
4C
48
FC
FC
18
30
ENDCHAR
STARTCHAR 5
ENCODING 53
SWIDTH 640 0
DWIDTH 8 0
BBX 7 11 1 0
BITMAP
1E
1E
20
30
78
1C
0C
0C
08
C8
F0
ENDCHAR
STARTCHAR 6
ENCODING 54
SWIDTH 640 0
DWIDTH 8 0
BBX 7 11 1 0
BITMAP
0E
18
30
60
F8
CC
CC
CC
98
D8
70
ENDCHAR
STARTCHAR 7
ENCODING 55
SWIDTH 640 0
DWIDTH 8 0
BBX 7 11 2 0
BITMAP
7E
7C
84
08
08
10
10
20
40
40
80
ENDCHAR
STARTCHAR 8
ENCODING 56
SWIDTH 640 0
DWIDTH 8 0
BBX 7 11 1 0
BITMAP
18
34
26
26
3C
38
5C
CC
CC
58
30
ENDCHAR
STARTCHAR 9
ENCODING 57
SWIDTH 640 0
DWIDTH 8 0
BBX 7 11 1 0
BITMAP
18
64
66
C6
C6
CE
7C
1C
38
60
C0
ENDCHAR
STARTCHAR colon
ENCODING 58
SWIDTH 400 0
DWIDTH 5 0
BBX 4 7 1 0
BITMAP
30
70
30
00
C0
E0
C0
ENDCHAR
STARTCHAR semicolon
ENCODING 59
SWIDTH 400 0
DWIDTH 5 0
BBX 5 10 0 -3
BITMAP
18
38
18
00
00
60
70
70
20
C0
ENDCHAR
STARTCHAR less
ENCODING 60
SWIDTH 720 0
DWIDTH 9 0
BBX 8 8 1 1
BITMAP
01
06
38
E0
E0
38
06
01
ENDCHAR
STARTCHAR equal
ENCODING 61
SWIDTH 720 0
DWIDTH 9 0
BBX 8 4 1 3
BITMAP
FF
00
00
FF
ENDCHAR
STARTCHAR greater
ENCODING 62
SWIDTH 720 0
DWIDTH 9 0
BBX 8 8 1 1
BITMAP
80
60
1C
07
07
1C
60
80
ENDCHAR
STARTCHAR question
ENCODING 63
SWIDTH 640 0
DWIDTH 8 0
BBX 7 11 1 0
BITMAP
18
24
66
0E
1C
30
20
00
E0
E0
E0
ENDCHAR
STARTCHAR at
ENCODING 64
SWIDTH 1040 0
DWIDTH 13 0
BBX 14 14 0 -3
BITMAP
07C0
1860
2010
4348
46C8
8CC8
8CC8
9988
9B90
9DA4
48C8
2018
3060
0F80
ENDCHAR
STARTCHAR A
ENCODING 65
SWIDTH 880 0
DWIDTH 11 0
BBX 11 11 -1 0
BITMAP
0020
0040
00C0
01C0
02C0
04C0
08C0
1FC0
10C0
60C0
E3E0
ENDCHAR
STARTCHAR B
ENCODING 66
SWIDTH 880 0
DWIDTH 11 0
BBX 10 11 0 0
BITMAP
3F00
19C0
19C0
19C0
3300
3E00
3300
2380
6380
6E00
FC00
ENDCHAR
STARTCHAR C
ENCODING 67
SWIDTH 880 0
DWIDTH 11 0
BBX 11 11 1 0
BITMAP
0320
0CC0
1840
3040
7000
E000
E000
E000
E080
7100
1E00
ENDCHAR
STARTCHAR D
ENCODING 68
SWIDTH 960 0
DWIDTH 12 0
BBX 11 11 0 0
BITMAP
3F00
19C0
18E0
18E0
38E0
30E0
30C0
31C0
7380
7600
F800
ENDCHAR
STARTCHAR E
ENCODING 69
SWIDTH 880 0
DWIDTH 11 0
BBX 11 11 0 0
BITMAP
1FE0
0C60
0C20
1C40
1880
1F00
3900
3880
3040
7080
FF80
ENDCHAR
STARTCHAR F
ENCODING 70
SWIDTH 880 0
DWIDTH 11 0
BBX 11 11 0 0
BITMAP
1FE0
0C20
1C20
1880
1F00
1900
3900
3000
3000
7000
F800
ENDCHAR
STARTCHAR G
ENCODING 71
SWIDTH 960 0
DWIDTH 12 0
BBX 11 11 1 0
BITMAP
03A0
0CC0
3840
7040
7000
E3C0
E180
E180
6300
3300
0E00
ENDCHAR
STARTCHAR H
ENCODING 72
SWIDTH 960 0
DWIDTH 12 0
BBX 14 11 0 0
BITMAP
1F7C
0E38
0C30
1C30
1870
1FE0
3860
30E0
30C0
71C0
FBE0
ENDCHAR
STARTCHAR I
ENCODING 73
SWIDTH 480 0
DWIDTH 6 0
BBX 8 11 0 0
BITMAP
1F
0E
0C
1C
1C
18
38
38
30
70
F8
ENDCHAR
STARTCHAR J
ENCODING 74
SWIDTH 640 0
DWIDTH 8 0
BBX 9 11 0 0
BITMAP
0F80
0700
0600
0600
0600
0E00
0C00
0C00
D800
D800
6000
ENDCHAR
STARTCHAR K
ENCODING 75
SWIDTH 880 0
DWIDTH 11 0
BBX 12 11 0 0
BITMAP
1FF0
0C60
0C80
1D00
1A00
1F00
3B00
3300
3380
7380
FBC0
ENDCHAR
STARTCHAR L
ENCODING 76
SWIDTH 800 0
DWIDTH 10 0
BBX 9 11 0 0
BITMAP
1F00
0C00
0C00
1C00
1800
1800
3800
3000
3080
7180
FF00
ENDCHAR
STARTCHAR M
ENCODING 77
SWIDTH 1120 0
DWIDTH 14 0
BBX 16 11 0 0
BITMAP
1E0F
0E1E
0E1C
162C
165C
1658
2698
2738
2630
4670
E4F8
ENDCHAR
STARTCHAR N
ENCODING 78
SWIDTH 960 0
DWIDTH 12 0
BBX 13 11 0 0
BITMAP
3C38
0E10
0E10
1720
1720
13A0
23C0
21C0
21C0
4080
E080
ENDCHAR
STARTCHAR O
ENCODING 79
SWIDTH 960 0
DWIDTH 12 0
BBX 10 11 1 0
BITMAP
0600
0980
11C0
31C0
71C0
E1C0
E380
E300
E200
6400
1800
ENDCHAR
STARTCHAR P
ENCODING 80
SWIDTH 800 0
DWIDTH 10 0
BBX 10 11 0 0
BITMAP
3F00
19C0
19C0
19C0
3380
3E00
3000
3000
6000
6000
F000
ENDCHAR
STARTCHAR Q
ENCODING 81
SWIDTH 960 0
DWIDTH 12 0
BBX 10 14 1 -3
BITMAP
0600
0980
11C0
31C0
71C0
E1C0
E380
E380
E300
6600
3C00
1000
3D80
FE00
ENDCHAR
STARTCHAR R
ENCODING 82
SWIDTH 880 0
DWIDTH 11 0
BBX 10 11 0 0
BITMAP
3F00
1980
19C0
19C0
3380
3E00
3600
3600
6700
6300
F3C0
ENDCHAR
STARTCHAR S
ENCODING 83
SWIDTH 720 0
DWIDTH 9 0
BBX 10 11 0 0
BITMAP
0E40
1980
3080
3080
3C00
1E00
0F00
8700
8300
C600
FE00
ENDCHAR
STARTCHAR T
ENCODING 84
SWIDTH 800 0
DWIDTH 10 0
BBX 9 11 1 0
BITMAP
7F80
4C80
9C80
1800
1800
1800
3800
3000
3000
7000
F800
ENDCHAR
STARTCHAR U
ENCODING 85
SWIDTH 960 0
DWIDTH 12 0
BBX 12 11 1 0
BITMAP
7CF0
3860
7040
7040
6040
6080
C080
C080
C100
E200
7C00
ENDCHAR
STARTCHAR V
ENCODING 86
SWIDTH 880 0
DWIDTH 11 0
BBX 10 11 2 0
BITMAP
F1C0
E080
C100
C200
C400
C800
D000
F000
E000
C000
8000
ENDCHAR
STARTCHAR W
ENCODING 87
SWIDTH 1120 0
DWIDTH 14 0
BBX 14 11 2 0
BITMAP
F7DC
7388
6308
6310
6720
6B40
7B40
E780
E700
C600
8400
ENDCHAR
STARTCHAR X
ENCODING 88
SWIDTH 880 0
DWIDTH 11 0
BBX 13 11 -1 0
BITMAP
3E38
1C30
0E20
06C0
0700
0300
0700
1B80
2180
61C0
F3E0
ENDCHAR
STARTCHAR Y
ENCODING 89
SWIDTH 800 0
DWIDTH 10 0
BBX 10 11 2 0
BITMAP
FDC0
7080
3100
3100
3A00
1C00
1800
3800
3000
7000
FC00
ENDCHAR
STARTCHAR Z
ENCODING 90
SWIDTH 800 0
DWIDTH 10 0
BBX 11 11 0 0
BITMAP
1FE0
10C0
2180
0380
0700
0E00
1C00
3800
3080
6180
FF00
ENDCHAR
STARTCHAR bracketleft
ENCODING 91
SWIDTH 400 0
DWIDTH 5 0
BBX 7 14 0 -3
BITMAP
0E
1C
18
18
30
30
30
20
60
60
60
40
C0
E0
ENDCHAR
STARTCHAR backslash
ENCODING 92
SWIDTH 320 0
DWIDTH 4 0
BBX 2 11 1 0
BITMAP
80
80
80
80
80
80
40
40
40
40
40
ENDCHAR
STARTCHAR bracketright
ENCODING 93
SWIDTH 400 0
DWIDTH 5 0
BBX 7 14 -2 -3
BITMAP
0E
06
04
0C
0C
0C
08
18
18
18
30
30
70
E0
ENDCHAR
STARTCHAR asciicircum
ENCODING 94
SWIDTH 720 0
DWIDTH 9 0
BBX 7 6 2 5
BITMAP
10
38
28
4C
44
82
ENDCHAR
STARTCHAR underscore
ENCODING 95
SWIDTH 640 0
DWIDTH 8 0
BBX 8 1 -1 -3
BITMAP
FF
ENDCHAR
STARTCHAR grave
ENCODING 96
SWIDTH 400 0
DWIDTH 5 0
BBX 3 3 2 8
BITMAP
C0
60
20
ENDCHAR
STARTCHAR a
ENCODING 97
SWIDTH 640 0
DWIDTH 8 0
BBX 8 7 0 0
BITMAP
1B
37
66
66
CE
DD
EE
ENDCHAR
STARTCHAR b
ENCODING 98
SWIDTH 640 0
DWIDTH 8 0
BBX 7 11 0 0
BITMAP
38
30
30
30
6C
76
66
C6
CC
D8
70
ENDCHAR
STARTCHAR c
ENCODING 99
SWIDTH 560 0
DWIDTH 7 0
BBX 7 7 0 0
BITMAP
0C
32
66
40
C0
C6
78
ENDCHAR
STARTCHAR d
ENCODING 100
SWIDTH 640 0
DWIDTH 8 0
BBX 9 11 0 0
BITMAP
0380
0380
0300
0300
1B00
3600
6600
E600
CC00
DD00
EE00
ENDCHAR
STARTCHAR e
ENCODING 101
SWIDTH 560 0
DWIDTH 7 0
BBX 7 7 0 0
BITMAP
0C
36
66
58
E0
C4
78
ENDCHAR
STARTCHAR f
ENCODING 102
SWIDTH 400 0
DWIDTH 5 0
BBX 11 14 -3 -3
BITMAP
0040
00A0
0300
0300
0F80
0600
0600
0E00
0C00
0C00
0C00
1800
D000
6000
ENDCHAR
STARTCHAR g
ENCODING 103
SWIDTH 640 0
DWIDTH 8 0
BBX 9 10 -1 -3
BITMAP
0F80
3300
3700
3700
1C00
2000
7C00
E600
C400
7800
ENDCHAR
STARTCHAR h
ENCODING 104
SWIDTH 720 0
DWIDTH 9 0
BBX 8 11 0 0
BITMAP
38
30
30
30
2E
6E
76
64
CC
CF
CC
ENDCHAR
STARTCHAR i
ENCODING 105
SWIDTH 320 0
DWIDTH 4 0
BBX 4 11 1 0
BITMAP
30
30
00
A0
60
60
60
C0
C0
F0
C0
ENDCHAR
STARTCHAR j
ENCODING 106
SWIDTH 320 0
DWIDTH 4 0
BBX 7 14 -2 -3
BITMAP
06
06
00
06
0C
0C
0C
0C
18
18
18
30
A0
C0
ENDCHAR
STARTCHAR k
ENCODING 107
SWIDTH 640 0
DWIDTH 8 0
BBX 8 11 0 0
BITMAP
38
18
30
30
37
64
68
7C
6C
CF
CC
ENDCHAR
STARTCHAR l
ENCODING 108
SWIDTH 320 0
DWIDTH 4 0
BBX 4 11 0 0
BITMAP
70
30
30
60
60
60
40
C0
C0
E0
C0
ENDCHAR
STARTCHAR m
ENCODING 109
SWIDTH 960 0
DWIDTH 12 0
BBX 12 7 0 0
BITMAP
7660
6EE0
7760
66C0
6CC0
CCF0
CCC0
ENDCHAR
STARTCHAR n
ENCODING 110
SWIDTH 720 0
DWIDTH 9 0
BBX 8 7 0 0
BITMAP
76
6E
76
66
CC
CF
CC
ENDCHAR
STARTCHAR o
ENCODING 111
SWIDTH 640 0
DWIDTH 8 0
BBX 8 7 0 0
BITMAP
0E
33
63
E7
C6
CC
70
ENDCHAR
STARTCHAR p
ENCODING 112
SWIDTH 640 0
DWIDTH 8 0
BBX 10 10 -2 -3
BITMAP
1FC0
0CC0
18C0
18C0
1980
3300
3E00
3000
6000
F000
ENDCHAR
STARTCHAR q
ENCODING 113
SWIDTH 640 0
DWIDTH 8 0
BBX 8 10 0 -3
BITMAP
1B
37
66
C6
DE
EC
4C
18
18
3C
ENDCHAR
STARTCHAR r
ENCODING 114
SWIDTH 480 0
DWIDTH 6 0
BBX 6 7 0 0
BITMAP
EC
6C
7C
50
E0
C0
C0
ENDCHAR
STARTCHAR s
ENCODING 115
SWIDTH 480 0
DWIDTH 6 0
BBX 6 7 0 0
BITMAP
3C
64
74
38
98
98
E0
ENDCHAR
STARTCHAR t
ENCODING 116
SWIDTH 320 0
DWIDTH 4 0
BBX 5 9 0 0
BITMAP
08
30
F8
60
60
60
C0
D0
E0
ENDCHAR
STARTCHAR u
ENCODING 117
SWIDTH 720 0
DWIDTH 9 0
BBX 7 7 1 0
BITMAP
E6
66
66
CC
DC
EE
CC
ENDCHAR
STARTCHAR v
ENCODING 118
SWIDTH 560 0
DWIDTH 7 0
BBX 6 7 1 0
BITMAP
CC
4C
44
68
70
60
40
ENDCHAR
STARTCHAR w
ENCODING 119
SWIDTH 880 0
DWIDTH 11 0
BBX 11 7 0 0
BITMAP
E260
6660
2E20
3640
3780
2700
4600
ENDCHAR
STARTCHAR x
ENCODING 120
SWIDTH 640 0
DWIDTH 8 0
BBX 8 7 -1 0
BITMAP
79
1B
1E
0C
1C
E7
C6
ENDCHAR
STARTCHAR y
ENCODING 121
SWIDTH 560 0
DWIDTH 7 0
BBX 8 10 -1 -3
BITMAP
33
1B
19
1A
1A
1C
18
10
F0
C0
ENDCHAR
STARTCHAR z
ENCODING 122
SWIDTH 480 0
DWIDTH 6 0
BBX 6 8 0 -1
BITMAP
7C
78
58
30
20
EC
2C
18
ENDCHAR
STARTCHAR braceleft
ENCODING 123
SWIDTH 480 0
DWIDTH 6 0
BBX 6 14 1 -3
BITMAP
0C
10
30
30
30
20
40
C0
40
40
C0
80
80
40
ENDCHAR
STARTCHAR bar
ENCODING 124
SWIDTH 320 0
DWIDTH 4 0
BBX 1 14 1 -3
BITMAP
80
80
80
80
80
80
80
80
80
80
80
80
80
80
ENDCHAR
STARTCHAR braceright
ENCODING 125
SWIDTH 480 0
DWIDTH 6 0
BBX 6 14 -1 -3
BITMAP
08
04
04
0C
08
08
04
08
10
30
30
30
20
C0
ENDCHAR
STARTCHAR asciitilde
ENCODING 126
SWIDTH 720 0
DWIDTH 9 0
BBX 9 3 1 3
BITMAP
7080
BD00
8E00
ENDCHAR
STARTCHAR C001122
ENCODING 133
SWIDTH 1280 0
DWIDTH 16 0
BBX 14 3 1 -1
BITMAP
E71C
E71C
E71C
ENDCHAR
STARTCHAR C001107
ENCODING 145
SWIDTH 400 0
DWIDTH 5 0
BBX 3 5 2 6
BITMAP
20
40
C0
E0
E0
ENDCHAR
STARTCHAR C001110
ENCODING 146
SWIDTH 400 0
DWIDTH 5 0
BBX 3 5 3 6
BITMAP
E0
E0
60
40
80
ENDCHAR
STARTCHAR C001113
ENCODING 147
SWIDTH 640 0
DWIDTH 8 0
BBX 6 5 2 6
BITMAP
24
48
D8
FC
FC
ENDCHAR
STARTCHAR C001114
ENCODING 148
SWIDTH 640 0
DWIDTH 8 0
BBX 7 5 2 6
BITMAP
7E
7E
36
24
C8
ENDCHAR
STARTCHAR C001121
ENCODING 149
SWIDTH 480 0
DWIDTH 6 0
BBX 4 4 1 3
BITMAP
60
F0
F0
60
ENDCHAR
STARTCHAR C001103
ENCODING 150
SWIDTH 640 0
DWIDTH 8 0
BBX 8 1 0 3
BITMAP
FF
ENDCHAR
STARTCHAR C001104
ENCODING 151
SWIDTH 1280 0
DWIDTH 16 0
BBX 16 1 0 3
BITMAP
FFFF
ENDCHAR
STARTCHAR exclamdown
ENCODING 161
SWIDTH 720 0
DWIDTH 9 0
BBX 8 10 1 0
BITMAP
3C
66
43
F3
63
63
C6
C6
C6
C6
ENDCHAR
STARTCHAR cent
ENCODING 162
SWIDTH 800 0
DWIDTH 10 0
BBX 9 10 1 0
BITMAP
3880
5980
ED80
AD80
5900
1B00
3300
3300
3300
1E00
ENDCHAR
STARTCHAR sterling
ENCODING 163
SWIDTH 880 0
DWIDTH 11 0
BBX 9 10 1 0
BITMAP
2880
7D80
AD80
8D80
A980
7B00
1B00
1B00
1B00
0C00
ENDCHAR
STARTCHAR currency
ENCODING 164
SWIDTH 800 0
DWIDTH 10 0
BBX 8 10 1 0
BITMAP
1E
6F
47
B3
CB
F3
C2
C6
C6
C6
ENDCHAR
STARTCHAR yen
ENCODING 165
SWIDTH 800 0
DWIDTH 10 0
BBX 9 10 1 0
BITMAP
3700
4980
8180
B180
C980
F380
C300
C300
C300
C300
ENDCHAR
STARTCHAR brokenbar
ENCODING 166
SWIDTH 960 0
DWIDTH 12 0
BBX 11 10 1 0
BITMAP
2420
7E60
FE60
8660
ACC0
ECC0
3CC0
4FC0
5980
3180
ENDCHAR
STARTCHAR section
ENCODING 167
SWIDTH 640 0
DWIDTH 8 0
BBX 7 10 1 0
BITMAP
1C
26
26
1E
06
8C
CC
6C
3C
18
ENDCHAR
STARTCHAR diaeresis
ENCODING 168
SWIDTH 720 0
DWIDTH 9 0
BBX 8 10 1 0
BITMAP
3E
46
73
B3
B3
73
36
76
76
3C
ENDCHAR
STARTCHAR copyright
ENCODING 169
SWIDTH 800 0
DWIDTH 10 0
BBX 8 10 1 0
BITMAP
1E
23
63
73
93
73
33
2F
75
66
ENDCHAR
STARTCHAR ordfeminine
ENCODING 170
SWIDTH 800 0
DWIDTH 10 0
BBX 8 10 1 0
BITMAP
31
5B
BA
BE
FA
1A
1A
36
34
7C
ENDCHAR
STARTCHAR guillemotleft
ENCODING 171
SWIDTH 880 0
DWIDTH 11 0
BBX 10 10 1 0
BITMAP
28C0
7CC0
FD80
9F00
AD00
6D00
1B00
1B00
1B00
3E00
ENDCHAR
STARTCHAR notsign
ENCODING 172
SWIDTH 1040 0
DWIDTH 13 0
BBX 12 10 1 0
BITMAP
3C10
6630
4370
F360
6360
6660
4F60
B6E0
B660
4C40
ENDCHAR
STARTCHAR hyphen
ENCODING 173
SWIDTH 1040 0
DWIDTH 13 0
BBX 12 15 1 -5
BITMAP
3E10
4630
8330
F330
6360
C660
C660
E6C0
D6C0
7380
0000
06C0
0CC0
0880
0700
ENDCHAR
STARTCHAR registered
ENCODING 174
SWIDTH 880 0
DWIDTH 11 0
BBX 10 14 0 -4
BITMAP
0780
08C0
1CC0
08C0
18C0
18C0
39C0
D980
9180
7580
0580
1D00
2D00
1300
ENDCHAR
STARTCHAR macron
ENCODING 175
SWIDTH 880 0
DWIDTH 11 0
BBX 11 15 0 -5
BITMAP
0780
08E0
1060
0E60
1860
1860
78C0
98C0
90C0
74C0
18C0
71C0
BF80
C980
0180
ENDCHAR
STARTCHAR degree
ENCODING 176
SWIDTH 720 0
DWIDTH 9 0
BBX 9 15 0 -5
BITMAP
0E80
1300
3E00
2300
3300
5B00
5B00
3B00
1B00
1E00
1400
6A00
B600
D600
1C00
ENDCHAR
STARTCHAR plusminus
ENCODING 177
SWIDTH 1040 0
DWIDTH 13 0
BBX 11 10 1 0
BITMAP
4CC0
7D60
9E60
9E60
EE60
4CC0
1CC0
18C0
18C0
18C0
ENDCHAR
STARTCHAR twosuperior
ENCODING 178
SWIDTH 1120 0
DWIDTH 14 0
BBX 12 10 1 0
BITMAP
3B10
6DB0
C1B0
C9B0
D5B0
CDB0
7B70
F3E0
E760
C220
ENDCHAR
STARTCHAR threesuperior
ENCODING 179
SWIDTH 1040 0
DWIDTH 13 0
BBX 12 10 1 0
BITMAP
3C10
4230
8330
7B30
E330
C620
C6E0
E7A0
A690
6660
ENDCHAR
STARTCHAR acute
ENCODING 180
SWIDTH 800 0
DWIDTH 10 0
BBX 9 10 1 0
BITMAP
1E00
6380
8180
9980
A980
9B00
F300
E300
C300
C300
ENDCHAR
STARTCHAR mu
ENCODING 181
SWIDTH 800 0
DWIDTH 10 0
BBX 8 10 1 0
BITMAP
3B
65
61
CD
D5
C9
F9
E3
E3
C3
ENDCHAR
STARTCHAR paragraph
ENCODING 182
SWIDTH 800 0
DWIDTH 10 0
BBX 8 10 1 0
BITMAP
3E
43
83
79
E3
C3
C3
E7
D6
66
ENDCHAR
STARTCHAR periodcentered
ENCODING 183
SWIDTH 880 0
DWIDTH 11 0
BBX 10 10 1 0
BITMAP
7380
75C0
B4C0
78C0
39C0
3980
3180
7180
6180
6380
ENDCHAR
STARTCHAR cedilla
ENCODING 184
SWIDTH 720 0
DWIDTH 9 0
BBX 9 10 1 0
BITMAP
3880
6F00
7600
F000
3E00
3600
3600
6600
6600
FC00
ENDCHAR
STARTCHAR onesuperior
ENCODING 185
SWIDTH 880 0
DWIDTH 11 0
BBX 10 10 1 0
BITMAP
6040
B0C0
B1C0
71C0
3180
2180
2F00
7680
6480
6300
ENDCHAR
STARTCHAR masculine
ENCODING 186
SWIDTH 880 0
DWIDTH 11 0
BBX 9 10 1 0
BITMAP
6180
B180
B180
7180
3180
3100
2300
6300
6300
FE00
ENDCHAR
STARTCHAR guillemotright
ENCODING 187
SWIDTH 880 0
DWIDTH 11 0
BBX 11 16 1 0
BITMAP
0020
0060
0060
0060
00C0
00C0
70C0
90C0
70C0
3180
3180
3180
3180
6180
6300
FE00
ENDCHAR
STARTCHAR onequarter
ENCODING 188
SWIDTH 800 0
DWIDTH 10 0
BBX 10 10 0 0
BITMAP
18C0
28C0
68C0
70C0
6580
6D80
D380
E380
C300
C300
ENDCHAR
STARTCHAR onehalf
ENCODING 189
SWIDTH 800 0
DWIDTH 10 0
BBX 11 16 0 0
BITMAP
0020
0060
0060
0060
00C0
00C0
18C0
28C0
68C0
70C0
6580
6D80
D580
E380
C300
C300
ENDCHAR
STARTCHAR threequarters
ENCODING 190
SWIDTH 960 0
DWIDTH 12 0
BBX 11 10 1 0
BITMAP
7260
9360
9360
7560
3540
39C0
39C0
31C0
71C0
60C0
ENDCHAR
STARTCHAR questiondown
ENCODING 191
SWIDTH 960 0
DWIDTH 12 0
BBX 12 16 1 0
BITMAP
0010
0030
0030
0030
0060
0060
6260
9260
9560
7560
39C0
39C0
39C0
71C0
71C0
6180
ENDCHAR
STARTCHAR Agrave
ENCODING 192
SWIDTH 880 0
DWIDTH 11 0
BBX 9 10 0 0
BITMAP
0F00
1180
1080
3C80
1880
1180
3180
F180
9300
6200
ENDCHAR
STARTCHAR Aacute
ENCODING 193
SWIDTH 880 0
DWIDTH 11 0
BBX 10 10 1 0
BITMAP
7040
98C0
98C0
78C0
19C0
3180
7980
B580
F380
4300
ENDCHAR
STARTCHAR Acircumflex
ENCODING 194
SWIDTH 720 0
DWIDTH 9 0
BBX 9 10 0 0
BITMAP
1880
2580
6580
7980
6180
7300
E300
C300
C600
FE00
ENDCHAR
STARTCHAR Atilde
ENCODING 195
SWIDTH 720 0
DWIDTH 9 0
BBX 8 10 1 0
BITMAP
19
3F
F8
0C
04
0C
1C
2C
2C
18
ENDCHAR
STARTCHAR Adiaeresis
ENCODING 196
SWIDTH 720 0
DWIDTH 9 0
BBX 7 15 1 -5
BITMAP
3C
46
86
F2
C6
C6
C6
F6
96
E4
0C
0C
0C
0C
08
ENDCHAR
STARTCHAR Aring
ENCODING 197
SWIDTH 720 0
DWIDTH 9 0
BBX 8 10 1 0
BITMAP
3C
C3
1D
73
63
E3
E7
F6
CE
76
ENDCHAR
STARTCHAR AE
ENCODING 198
SWIDTH 880 0
DWIDTH 11 0
BBX 10 15 0 -5
BITMAP
0780
19C0
10C0
3CC0
18C0
18C0
1980
F180
9180
6180
0180
0100
0300
0300
0300
ENDCHAR
STARTCHAR Ccedilla
ENCODING 199
SWIDTH 720 0
DWIDTH 9 0
BBX 7 10 2 0
BITMAP
7C
8E
06
06
0E
0C
3C
4C
4C
30
ENDCHAR
STARTCHAR Egrave
ENCODING 200
SWIDTH 800 0
DWIDTH 10 0
BBX 9 10 1 0
BITMAP
1C80
6700
C300
B300
CF00
DB00
E300
C600
C600
C600
ENDCHAR
STARTCHAR Eacute
ENCODING 201
SWIDTH 880 0
DWIDTH 11 0
BBX 9 10 1 0
BITMAP
6080
B180
B180
7180
3D80
3300
3F00
6300
6300
FE00
ENDCHAR
STARTCHAR Ecircumflex
ENCODING 202
SWIDTH 800 0
DWIDTH 10 0
BBX 10 10 1 0
BITMAP
3EC0
C780
3B00
6700
C300
C700
E600
9600
9600
E600
ENDCHAR
STARTCHAR Ediaeresis
ENCODING 203
SWIDTH 880 0
DWIDTH 11 0
BBX 11 10 1 0
BITMAP
70C0
9120
9140
7380
3480
3980
3180
3180
6180
6180
ENDCHAR
STARTCHAR Igrave
ENCODING 204
SWIDTH 1120 0
DWIDTH 14 0
BBX 13 10 1 0
BITMAP
62D8
5330
97E0
F6E0
36C0
3BC0
39C0
31C0
71C0
6180
ENDCHAR
STARTCHAR Iacute
ENCODING 205
SWIDTH 720 0
DWIDTH 9 0
BBX 8 10 1 0
BITMAP
3C
C7
33
4B
EB
D3
C6
C6
C6
38
ENDCHAR
STARTCHAR Icircumflex
ENCODING 206
SWIDTH 720 0
DWIDTH 9 0
BBX 8 10 1 0
BITMAP
1F
67
46
3F
32
56
D6
E6
C4
38
ENDCHAR
STARTCHAR Idiaeresis
ENCODING 207
SWIDTH 880 0
DWIDTH 11 0
BBX 8 10 2 0
BITMAP
07
0B
6B
8B
92
E6
06
06
06
06
ENDCHAR
STARTCHAR ETH
ENCODING 208
SWIDTH 720 0
DWIDTH 9 0
BBX 8 9 1 0
BITMAP
63
56
78
00
00
46
A6
AC
F0
ENDCHAR
STARTCHAR Ntilde
ENCODING 209
SWIDTH 0 0
DWIDTH 0 0
BBX 8 4 -5 11
BITMAP
61
91
E6
38
ENDCHAR
STARTCHAR Ograve
ENCODING 210
SWIDTH 560 0
DWIDTH 7 0
BBX 5 10 2 0
BITMAP
70
98
18
18
18
30
30
30
30
30
ENDCHAR
STARTCHAR Oacute
ENCODING 211
SWIDTH 560 0
DWIDTH 7 0
BBX 11 15 -4 0
BITMAP
6000
9000
B000
6000
0000
01C0
0260
0060
0060
0060
00C0
00C0
00C0
00C0
00C0
ENDCHAR
STARTCHAR Ocircumflex
ENCODING 212
SWIDTH 0 0
DWIDTH 0 0
BBX 8 4 -8 11
BITMAP
3E
43
FD
03
ENDCHAR
STARTCHAR Otilde
ENCODING 213
SWIDTH 0 0
DWIDTH 0 0
BBX 8 5 -8 11
BITMAP
01
3F
43
FD
03
ENDCHAR
STARTCHAR Odiaeresis
ENCODING 214
SWIDTH 0 0
DWIDTH 0 0
BBX 9 6 -8 11
BITMAP
0300
0280
3F80
4200
FD00
0300
ENDCHAR
STARTCHAR multiply
ENCODING 215
SWIDTH 0 0
DWIDTH 0 0
BBX 8 6 -7 11
BITMAP
0D
0F
3F
43
FD
03
ENDCHAR
STARTCHAR Ooblique
ENCODING 216
SWIDTH 0 0
DWIDTH 0 0
BBX 4 4 -6 -5
BITMAP
70
90
70
30
ENDCHAR
STARTCHAR Ugrave
ENCODING 217
SWIDTH 0 0
DWIDTH 0 0
BBX 6 5 -8 -5
BITMAP
6C
9C
EC
2C
38
ENDCHAR
STARTCHAR Uacute
ENCODING 218
SWIDTH 0 0
DWIDTH 0 0
BBX 3 3 -5 -4
BITMAP
60
E0
C0
ENDCHAR
STARTCHAR Ucircumflex
ENCODING 219
SWIDTH 400 0
DWIDTH 5 0
BBX 0 0 0 0
BITMAP
ENDCHAR
STARTCHAR Udiaeresis
ENCODING 220
SWIDTH 400 0
DWIDTH 5 0
BBX 4 2 0 -2
BITMAP
F0
90
ENDCHAR
STARTCHAR ssharp
ENCODING 223
SWIDTH 880 0
DWIDTH 11 0
BBX 10 13 0 0
BITMAP
0100
0100
3F00
3FC0
1AC0
1B80
3F00
3A80
36C0
34C0
3480
7F00
8400
ENDCHAR
STARTCHAR agrave
ENCODING 224
SWIDTH 320 0
DWIDTH 4 0
BBX 4 10 0 0
BITMAP
30
30
60
60
60
60
60
A0
A0
40
ENDCHAR
STARTCHAR aacute
ENCODING 225
SWIDTH 720 0
DWIDTH 9 0
BBX 9 10 0 0
BITMAP
3180
3180
6300
6300
6300
6300
6300
A500
A500
4200
ENDCHAR
STARTCHAR acircumflex
ENCODING 226
SWIDTH 480 0
DWIDTH 6 0
BBX 8 17 1 0
BITMAP
31
5E
CC
60
10
18
18
18
10
10
30
30
30
30
50
50
20
ENDCHAR
STARTCHAR atilde
ENCODING 227
SWIDTH 480 0
DWIDTH 6 0
BBX 6 17 0 0
BITMAP
18
6C
9C
DC
EC
0C
08
08
18
18
18
10
10
10
28
28
10
ENDCHAR
STARTCHAR adiaeresis
ENCODING 228
SWIDTH 560 0
DWIDTH 7 0
BBX 7 17 1 0
BITMAP
CC
4E
D6
D6
DE
FC
6C
0C
0C
0C
18
18
18
18
24
24
18
ENDCHAR
STARTCHAR aring
ENCODING 229
SWIDTH 560 0
DWIDTH 7 0
BBX 5 15 2 -5
BITMAP
70
98
18
18
18
30
30
30
30
30
30
60
60
60
60
ENDCHAR
STARTCHAR ae
ENCODING 230
SWIDTH 640 0
DWIDTH 8 0
BBX 6 15 1 -5
BITMAP
28
7C
9C
8C
AC
4C
0C
08
08
18
18
18
18
18
10
ENDCHAR
STARTCHAR ccedilla
ENCODING 231
SWIDTH 0 0
DWIDTH 0 0
BBX 6 5 -5 11
BITMAP
0C
78
98
D8
78
ENDCHAR
STARTCHAR egrave
ENCODING 232
SWIDTH 0 0
DWIDTH 0 0
BBX 2 3 0 18
BITMAP
C0
80
80
ENDCHAR
STARTCHAR eacute
ENCODING 233
SWIDTH 0 0
DWIDTH 0 0
BBX 5 4 -3 18
BITMAP
68
A8
F0
E0
ENDCHAR
STARTCHAR ecircumflex
ENCODING 234
SWIDTH 0 0
DWIDTH 0 0
BBX 7 5 -3 19
BITMAP
7A
9A
8C
A8
70
ENDCHAR
STARTCHAR ediaeresis
ENCODING 235
SWIDTH 0 0
DWIDTH 0 0
BBX 4 5 -2 19
BITMAP
20
20
F0
40
40
ENDCHAR
STARTCHAR igrave
ENCODING 236
SWIDTH 0 0
DWIDTH 0 0
BBX 3 4 -1 18
BITMAP
20
E0
A0
C0
ENDCHAR
STARTCHAR iacute
ENCODING 237
SWIDTH 0 0
DWIDTH 0 0
BBX 3 4 -3 11
BITMAP
40
A0
A0
C0
ENDCHAR
STARTCHAR icircumflex
ENCODING 238
SWIDTH 0 0
DWIDTH 0 0
BBX 6 5 -3 12
BITMAP
1C
60
70
80
E0
ENDCHAR
STARTCHAR idiaeresis
ENCODING 239
SWIDTH 720 0
DWIDTH 9 0
BBX 8 7 1 1
BITMAP
1C
23
5D
BD
B9
46
38
ENDCHAR
STARTCHAR eth
ENCODING 240
SWIDTH 720 0
DWIDTH 9 0
BBX 7 7 1 0
BITMAP
38
64
82
82
86
4C
38
ENDCHAR
STARTCHAR ntilde
ENCODING 241
SWIDTH 720 0
DWIDTH 9 0
BBX 7 7 1 0
BITMAP
3C
46
C2
92
BA
94
68
ENDCHAR
STARTCHAR ograve
ENCODING 242
SWIDTH 1040 0
DWIDTH 13 0
BBX 11 11 1 0
BITMAP
6000
6000
6000
6000
6640
4FE0
D120
D520
CA40
C0C0
7F00
ENDCHAR
STARTCHAR oacute
ENCODING 243
SWIDTH 960 0
DWIDTH 12 0
BBX 11 7 0 0
BITMAP
1CC0
7FE0
6720
C220
B220
B440
6C80
ENDCHAR
STARTCHAR ocircumflex
ENCODING 244
SWIDTH 960 0
DWIDTH 12 0
BBX 11 11 1 0
BITMAP
0020
0020
0040
0780
1800
6380
6D80
C980
CC00
EF00
70C0
ENDCHAR
STARTCHAR otilde
ENCODING 245
SWIDTH 960 0
DWIDTH 12 0
BBX 14 11 0 0
BITMAP
0018
0318
0590
05E0
0300
1C00
73C0
C2C0
C200
C380
7DC0
ENDCHAR
STARTCHAR odiaeresis
ENCODING 246
SWIDTH 720 0
DWIDTH 9 0
BBX 7 11 1 0
BITMAP
80
C0
40
40
7C
C6
02
C2
E2
84
78
ENDCHAR
STARTCHAR division
ENCODING 247
SWIDTH 1040 0
DWIDTH 13 0
BBX 11 11 1 0
BITMAP
00C0
00C0
0060
0020
3320
7FA0
C8A0
80C0
B0C0
F180
6300
ENDCHAR
STARTCHAR oslash
ENCODING 248
SWIDTH 960 0
DWIDTH 12 0
BBX 11 11 1 0
BITMAP
0020
0020
0020
0060
3C40
7F80
C380
B180
FB80
CD00
4700
ENDCHAR
STARTCHAR ugrave
ENCODING 249
SWIDTH 720 0
DWIDTH 9 0
BBX 9 11 1 0
BITMAP
0080
0180
3F00
2000
3E00
3000
DC00
DC00
CC00
C800
7000
ENDCHAR
STARTCHAR uacute
ENCODING 250
SWIDTH 960 0
DWIDTH 12 0
BBX 11 10 1 0
BITMAP
0720
0760
6B60
8B60
9340
6240
0640
06C0
06C0
06C0
ENDCHAR
STARTCHAR ucircumflex
ENCODING 251
SWIDTH 1600 0
DWIDTH 20 0
BBX 18 9 1 0
BITMAP
1E0000
620000
400000
800000
812440
81DC80
825300
440000
380000
ENDCHAR
STARTCHAR udiaeresis
ENCODING 252
SWIDTH 0 0
DWIDTH 0 0
BBX 4 5 -7 -11
BITMAP
70
90
70
30
30
ENDCHAR
STARTCHAR yacute
ENCODING 253
SWIDTH 0 0
DWIDTH 0 0
BBX 6 4 -8 -10
BITMAP
6C
AC
6C
78
ENDCHAR
STARTCHAR thorn
ENCODING 254
SWIDTH 0 0
DWIDTH 0 0
BBX 3 3 -6 -9
BITMAP
60
E0
C0
ENDCHAR
ENDFONT
